<?xml version="1.0" encoding="UTF-8" standalone="no" ?>
<!DOCTYPE svg PUBLIC "-//W3C//DTD SVG 1.1//EN" "http://www.w3.org/Graphics/SVG/1.1/DTD/svg11.dtd">
<svg xmlns="http://www.w3.org/2000/svg" xmlns:xlink="http://www.w3.org/1999/xlink" version="1.1" width="696" height="691.3599999999999" viewBox="0 0 696 691.36" xml:space="preserve">
<desc>Created with Fabric.js 2.4.6</desc>
<g transform="matrix(1 0 0 1 358.81 443.12)" style=""  >
	<g transform="matrix(2.06 0 0 2.06 -27.22 -171.66)" style=""  >
	<g transform="matrix(2.31 0 0 2.31 0.05 0.05)" id="innerlogo"  >
<path style="stroke: none; stroke-width: 1; stroke-dasharray: none; stroke-linecap: butt; stroke-dashoffset: 0; stroke-linejoin: miter; stroke-miterlimit: 4; fill: rgb(236,240,248); fill-rule: evenodd; opacity: 1;"  transform=" translate(-150, -128.1)" d="M 133 122.2 v 15.7 l 13.6 7.8 V 134 v -3.9 l -3.4 -2 L 133 122.2 z M 153.4 145.7 l 13.6 -7.8 v -8.6 v -3.9 v -3.1 l -10.2 5.9 l -3.4 2 v 3.9 V 145.7 z M 163.6 116.4 l -13.6 -7.8 l -10.7 6.2 l -2.9 1.7 l 10.2 5.9 l 3.4 2 l 3.4 -2 L 163.6 116.4 z M 156.8 104.6 l 13.6 7.8 l 3.4 2 l 3.4 2 l 3.4 2 l 3.4 2 l 3.4 2 v 3.9 v 3.9 v 3.9 v 3.9 v 3.9 v 3.9 v 3.9 v 3.9 l 3.4 2 l 3.4 2 l 3.4 2 l -3.4 2 l -3.4 2 l -3.4 -2 l -3.4 -2 l -3.4 -2 v -3.9 v -3.9 l 0 -3.9 v -3.9 l 0 -3.9 V 134 l 0 -3.9 v -3.9 l -3.4 -2 l -2.5 -1.4 l -0.9 -0.5 v 3.1 v 7 v 17.3 v 3.9 v 3.9 l -3.4 2 l -3.4 2 l -3.4 2 l -3.4 2 l -3.4 2 l -3.4 2 l -3.4 2 l -3.4 2 v 3.9 v 3.9 v 3.9 l -3.4 -2 l -3.4 -2 v -3.9 v -3.9 v -3.9 l 3.4 -2 l 3.4 -2 l 3.4 -2 l 3.4 -2 l 3.4 -2 l 3.4 -2 l 3.4 -2 l 3.4 -2 v -3.9 v -3.9 l -13.6 7.8 l -0.9 0.5 l -2.5 1.5 l -2.8 1.6 l -0.1 0.1 l -0.4 0.3 l -3.4 2 l -3.4 2 l -3.4 2 l -3.4 -2 l -3.4 -2 l -3.4 -2 l -3.4 -2 l -3.4 -2 l -3.4 -2 l -3.4 -2 l -3.4 -2 l -3.4 2 l -3.4 2 l -3.4 2 v -3.9 v -3.9 l 3.4 -2 l 3.4 -2 l 3.4 -2 l 3.4 2 l 3.4 2 l 3.4 2 l 3.4 2 l 3.4 2 l 3.4 2 l 3.4 2 l 3.4 2 l 3.4 -2 l 3.4 -2 l -13.6 -7.8 l -3.4 -2 v -3.9 v 3.9 l -3.4 -2 l -3.4 -2 l -3.4 -2 l -3.4 -2 v -3.9 v -3.9 v -3.9 v -3.9 v -3.9 v -3.9 v -3.9 v -3.9 l -3.4 -2 l -3.4 -2 l -3.4 -2 l 3.4 -2 l 3.4 -2 l 3.4 2 l 3.4 2 l 3.4 2 v 3.9 v 3.9 v 3.9 v 3.9 v 3.9 v 3.9 v 3.9 v 3.9 l 3.4 2 l 3.4 2 l 0 0 v -15.7 l 0 0 v -3.9 v -3.9 v -3.9 v -3.9 v -3.9 l 3.4 -2 l 3.4 -2 l 3.4 -2 l 3.4 -2 l 3.4 -2 l 3.4 -2 l 3.4 -2 l 3.4 -2 v -3.9 v -3.9 v -3.9 l 3.4 2 l 3.4 2 v 3.9 v 3.9 V 87 l -3.4 2 l -3.4 2 l -3.4 2 l -3.4 2 l -3.4 2 l -3.4 2 l -3.4 2 l -3.4 2 v 3.9 v 2 h 0 v 1.9 l 8.5 -4.9 l 5.1 -2.9 l 3.4 -2 l 3.4 2 l -3.4 -2 l 3.4 -2 l 3.4 -2 l 3.4 -2 l 3.4 -2 l 3.4 2 l 3.4 2 l 3.4 2 l 3.4 2 l 3.4 2 l 3.4 2 l 3.4 2 l 3.4 2 l 3.4 -2 l 3.4 -2 l 3.4 -2 v 3.9 v 3.9 l -3.4 2 l -3.4 2 l -3.4 2 l -3.4 -2 l -3.4 -2 l -3.4 -2 l -3.4 -2 l -3.4 -2 l -3.4 -2 l -3.4 -2 l -3.4 -2 l -3.4 2 L 156.8 104.6 z M 175.4 91.8 c -2.1 1.3 -4.9 1.4 -7.2 0.1 c -3.4 -2 -4.5 -6.3 -2.6 -9.7 c 2 -3.4 6.3 -4.5 9.7 -2.6 c 2.3 1.3 3.6 3.8 3.5 6.3 l 1.8 1 l 3.4 2 l 3.4 2 l 3.4 2 l 3.4 2 l 3.4 2 l -3.4 2 l -3.4 2 l -3.4 -2 l -3.4 -2 l -3.4 -2 l -3.4 -2 L 175.4 91.8 z M 194.1 131.9 c -2.2 -1.2 -3.7 -3.5 -3.7 -6.2 c 0 -3.9 3.2 -7.1 7.1 -7.1 c 3.9 0 7.1 3.2 7.1 7.1 c 0 2.7 -1.5 5 -3.7 6.2 l 0 2.1 v 3.9 v 3.9 v 3.9 v 3.9 v 3.9 l -3.4 -2 l -3.4 -2 v -3.9 v -3.9 v -3.9 V 134 V 131.9 z M 168.7 168.2 c -0.1 -2.5 1.2 -5 3.5 -6.3 c 3.4 -2 7.7 -0.8 9.7 2.6 c 2 3.4 0.8 7.7 -2.6 9.7 c -2.3 1.3 -5.1 1.2 -7.2 -0.1 l -1.8 1 l -3.4 2 l -3.4 2 l -3.4 2 l -3.4 2 l -3.4 2 V 181 v -3.9 l 3.4 -2 l 3.4 -2 l 3.4 -2 l 3.4 -2 L 168.7 168.2 z M 124.6 164.4 c 2.1 -1.3 4.9 -1.4 7.2 -0.1 c 3.4 2 4.5 6.3 2.6 9.7 c -2 3.4 -6.3 4.5 -9.7 2.6 c -2.3 -1.3 -3.6 -3.8 -3.5 -6.3 l -1.8 -1 l -3.4 -2 l -3.4 -2 l -3.4 -2 l -3.4 -2 l -3.4 -2 l 3.4 -2 l 3.4 -2 l 3.4 2 l 3.4 2 l 3.4 2 l 3.4 2 L 124.6 164.4 z M 105.9 124.3 c 2.2 1.2 3.7 3.5 3.7 6.2 c 0 3.9 -3.2 7.1 -7.1 7.1 c -3.9 0 -7.1 -3.2 -7.1 -7.1 c 0 -2.7 1.5 -5 3.7 -6.2 v -2.1 v -3.9 v -3.9 v -3.9 v -3.9 v -3.9 l 3.4 2 l 3.4 2 v 3.9 v 3.9 v 3.9 l 0 3.9 L 105.9 124.3 z M 102.5 127.7 c 1.6 0 2.8 1.3 2.8 2.8 c 0 1.6 -1.3 2.8 -2.8 2.8 c -1.6 0 -2.8 -1.3 -2.8 -2.8 C 99.7 128.9 100.9 127.7 102.5 127.7 z M 126.6 86.8 c 0.8 1.4 0.3 3.1 -1 3.9 c -1.4 0.8 -3.1 0.3 -3.9 -1 c -0.8 -1.4 -0.3 -3.1 1 -3.9 C 124.1 84.9 125.9 85.4 126.6 86.8 z M 174.1 87.2 c -0.8 1.4 -2.5 1.8 -3.9 1 c -1.4 -0.8 -1.8 -2.5 -1 -3.9 c 0.8 -1.4 2.5 -1.8 3.9 -1 C 174.4 84.1 174.9 85.8 174.1 87.2 z M 197.5 128.5 c -1.6 0 -2.8 -1.3 -2.8 -2.8 c 0 -1.6 1.3 -2.8 2.8 -2.8 c 1.6 0 2.8 1.3 2.8 2.8 C 200.3 127.3 199.1 128.5 197.5 128.5 z M 173.4 169.4 c -0.8 -1.4 -0.3 -3.1 1 -3.9 c 1.4 -0.8 3.1 -0.3 3.9 1 c 0.8 1.4 0.3 3.1 -1 3.9 C 175.9 171.3 174.1 170.8 173.4 169.4 z M 125.9 169 c 0.8 -1.4 2.5 -1.8 3.9 -1 c 1.4 0.8 1.8 2.5 1 3.9 c -0.8 1.4 -2.5 1.8 -3.9 1 C 125.6 172.1 125.1 170.4 125.9 169 z M 131.3 88 l 1.8 -1 l 3.4 -2 l 3.4 -2 l 3.4 -2 l 3.4 -2 v -3.9 v -3.9 l -3.4 2 l -3.4 2 l -3.4 2 l -3.4 2 l -3.4 2 l -1.8 1 c -2.1 -1.3 -4.9 -1.4 -7.2 -0.1 c -3.4 2 -4.5 6.3 -2.6 9.7 c 2 3.4 6.3 4.5 9.7 2.6 C 130 93 131.3 90.5 131.3 88 z" stroke-linecap="round" />
</g>
</g>
</g>
</svg>